<svg xmlns="http://www.w3.org/2000/svg" xmlns:xlink="http://www.w3.org/1999/xlink" viewBox="0,0,256,256" width="50px" height="50px" fill-rule="nonzero"><g fill="#c4fe76" fill-rule="nonzero" stroke="none" stroke-width="1" stroke-linecap="butt" stroke-linejoin="miter" stroke-miterlimit="10" stroke-dasharray="" stroke-dashoffset="0" font-family="none" font-weight="none" font-size="none" text-anchor="none" style="mix-blend-mode: normal"><g transform="scale(5.12,5.12)"><path d="M19,1c-1.29297,0 -2.39453,0.84375 -2.8125,2h-4.96875c-0.10156,-0.02734 -0.20703,-0.03906 -0.3125,-0.03125c-0.03125,0.00781 -0.0625,0.01953 -0.09375,0.03125h-5.8125c-1.64453,0 -3,1.35547 -3,3v35c0,1.64453 1.35547,3 3,3h18c0,1.64453 1.35547,3 3,3h18c1.64453,0 3,-1.35547 3,-3v-23c0,-1.64453 -1.35547,-3 -3,-3h-8v-12c0,-1.64453 -1.35547,-3 -3,-3h-11.1875c-0.41797,-1.15625 -1.51953,-2 -2.8125,-2zM19,3c0.5,0 0.88281,0.34375 0.96875,0.8125c-0.02344,0.125 -0.02344,0.25 0,0.375c-0.08594,0.46875 -0.46875,0.8125 -0.96875,0.8125c-0.53125,0 -0.95312,-0.38672 -1,-0.90625c0,-0.03125 0,-0.0625 0,-0.09375c0,-0.5625 0.4375,-1 1,-1zM5,5h5v3c0,1.64453 1.35547,3 3,3h12c1.64453,0 3,-1.35547 3,-3v-3h5c0.56641,0 1,0.43359 1,1v12h-8c-1.64453,0 -3,1.35547 -3,3v21h-18c-0.56641,0 -1,-0.43359 -1,-1v-35c0,-0.56641 0.43359,-1 1,-1zM12,5h4.1875c0.41797,1.15625 1.51953,2 2.8125,2c1.29297,0 2.39453,-0.84375 2.8125,-2h4.1875v3c0,0.56641 -0.43359,1 -1,1h-12c-0.56641,0 -1,-0.43359 -1,-1zM13,15v6h-2v-3h-2v3h-2v2h14v-2h-2v-4h-2v4h-2v-6zM26,20h18c0.56641,0 1,0.43359 1,1v23c0,0.56641 -0.43359,1 -1,1h-18c-0.56641,0 -1,-0.43359 -1,-1v-0.8125c0.02734,-0.13281 0.02734,-0.27344 0,-0.40625v-21.78125c0,-0.56641 0.43359,-1 1,-1zM27.8125,22c-0.47656,0.08984 -0.82031,0.51172 -0.8125,1v4c0,0.55078 0.44922,1 1,1h14c0.55078,0 1,-0.44922 1,-1v-4c0,-0.55078 -0.44922,-1 -1,-1h-14c-0.03125,0 -0.0625,0 -0.09375,0c-0.03125,0 -0.0625,0 -0.09375,0zM29,24h12v2h-12zM13,27c-3.30078,0 -6,2.69922 -6,6c0,3.30078 2.69922,6 6,6c3.30078,0 6,-2.69922 6,-6c0,-3.30078 -2.69922,-6 -6,-6zM13,29v4h4c0,2.22266 -1.77734,4 -4,4c-2.22266,0 -4,-1.77734 -4,-4c0,-2.22266 1.77734,-4 4,-4zM28,30c-0.55078,0 -1,0.44922 -1,1v1c0,0.55078 0.44922,1 1,1h2c0.55078,0 1,-0.44922 1,-1v-1c0,-0.55078 -0.44922,-1 -1,-1zM34,30c-0.55078,0 -1,0.44922 -1,1v1c0,0.55078 0.44922,1 1,1h2c0.55078,0 1,-0.44922 1,-1v-1c0,-0.55078 -0.44922,-1 -1,-1zM40,30c-0.55078,0 -1,0.44922 -1,1v1c0,0.55078 0.44922,1 1,1h2c0.55078,0 1,-0.44922 1,-1v-1c0,-0.55078 -0.44922,-1 -1,-1zM28,35c-0.55078,0 -1,0.44922 -1,1v1c0,0.55078 0.44922,1 1,1h2c0.55078,0 1,-0.44922 1,-1v-1c0,-0.55078 -0.44922,-1 -1,-1zM34,35c-0.55078,0 -1,0.44922 -1,1v1c0,0.55078 0.44922,1 1,1h2c0.55078,0 1,-0.44922 1,-1v-1c0,-0.55078 -0.44922,-1 -1,-1zM40,35c-0.55078,0 -1,0.44922 -1,1v1c0,0.55078 0.44922,1 1,1h2c0.55078,0 1,-0.44922 1,-1v-1c0,-0.55078 -0.44922,-1 -1,-1zM28,40c-0.55078,0 -1,0.44922 -1,1v1c0,0.55078 0.44922,1 1,1h2c0.55078,0 1,-0.44922 1,-1v-1c0,-0.55078 -0.44922,-1 -1,-1zM34,40c-0.55078,0 -1,0.44922 -1,1v1c0,0.55078 0.44922,1 1,1h2c0.55078,0 1,-0.44922 1,-1v-1c0,-0.55078 -0.44922,-1 -1,-1zM40,40c-0.55078,0 -1,0.44922 -1,1v1c0,0.55078 0.44922,1 1,1h2c0.55078,0 1,-0.44922 1,-1v-1c0,-0.55078 -0.44922,-1 -1,-1z"></path></g></g></svg>