<svg xmlns="http://www.w3.org/2000/svg" xmlns:xlink="http://www.w3.org/1999/xlink" viewBox="0,0,256,256" width="50px" height="50px" fill-rule="nonzero"><g fill="#c4fe76" fill-rule="nonzero" stroke="none" stroke-width="1" stroke-linecap="butt" stroke-linejoin="miter" stroke-miterlimit="10" stroke-dasharray="" stroke-dashoffset="0" font-family="none" font-weight="none" font-size="none" text-anchor="none" style="mix-blend-mode: normal"><g transform="scale(5.12,5.12)"><path d="M19.54688,3c-9.58203,0 -17.54687,6.96094 -17.54687,15.71484c0,4.20313 1.87891,8.01953 4.85938,10.83594l-0.09375,0.46094c-0.67187,1.96875 -2.32422,3.08203 -3.30469,3.4375c-0.57031,0.20313 -1.04297,0.51172 -1.30469,1.05078c-0.25781,0.53516 -0.10156,1.27734 0.28906,1.66406c0.91406,0.91797 2.10156,0.82813 2.96875,0.83594c3.26172,0.03906 7.10547,-1.67187 9.43359,-2.83594l0.02734,-0.01172l0.79688,-0.46094l-0.30469,-0.09375l0.03516,0.00781c1.29688,0.30078 2.65625,0.39453 3.99219,0.39453c8.42578,0 15.67578,-5.03516 17.27734,-12.28125v-0.00391c0.21484,-0.96484 0.32813,-1.96875 0.32813,-3c0,-8.74609 -7.87109,-15.71484 -17.45312,-15.71484zM19.54688,5c8.61719,0 15.45313,6.17188 15.45313,13.71484c0,0.88672 -0.09766,1.74609 -0.28125,2.57031c-1.36719,6.1875 -7.69141,10.71484 -15.32422,10.71484c-1.23437,0 -2.44922,-0.09375 -3.53516,-0.34375l-0.4375,-0.12891l-1.48047,0.85156c-2.21094,1.10547 -6.02344,2.65234 -8.50391,2.62109c-0.33984,0 -0.37109,-0.06641 -0.60937,-0.09375c1.42188,-0.69531 3.0625,-1.95703 3.84375,-4.27734l0.01563,-0.05078l0.35938,-1.6875l-0.44141,-0.39062c-2.86328,-2.50391 -4.60547,-5.97656 -4.60547,-9.78516c0,-7.53516 6.92969,-13.71484 15.54688,-13.71484zM11,12v2h17v-2zM11,17v2h17v-2zM38.78516,21.19531c-0.05078,0.32031 -0.08594,0.64063 -0.15625,0.95703c-0.07812,0.34375 -0.17969,0.67969 -0.28125,1.01953c4.60547,1.77734 7.63672,5.35938 7.63672,9.33984c0,2.85547 -1.48437,5.52344 -4.1875,7.51953l-0.54297,0.40234l0.16797,0.65625c0.53906,2.06641 2.42969,3.13281 3.73828,3.84375c-2.07422,0.28125 -6.58203,-0.1875 -8.84766,-2.86719l-0.37891,-0.45312l-0.57812,0.11719c-0.91016,0.17969 -1.96484,0.26953 -3.23047,0.26953c-6.21875,0 -11.26953,-2.41016 -13.23437,-6.01562c-0.8125,-0.01562 -1.57031,-0.07031 -2.28125,-0.15625c1.85547,4.91406 7.82031,8.17188 15.51563,8.17188c1.15234,0 2.15625,-0.07031 3.05859,-0.20703c2.20703,2.23438 5.80469,3.20313 8.71875,3.20313c0.19141,0 0.38281,-0.00391 0.56641,-0.01172c1.69141,-0.07812 2.79297,-0.46875 3.28125,-1.16016c0.21484,-0.3125 0.28906,-0.67969 0.20313,-1.03906c-0.16797,-0.71484 -0.82422,-1.06641 -1.73437,-1.55469c-0.89453,-0.48437 -2.07031,-1.12109 -2.62109,-2.07031c2.80078,-2.3125 4.38672,-5.42187 4.38672,-8.64844c0,-4.90625 -3.66797,-9.28516 -9.19922,-11.31641zM11,22v2h12v-2zM36.01563,28c-0.5,0.70313 -1.05078,1.375 -1.65625,2h4.64063v-2zM30.58984,33c-1.37891,0.82813 -2.89062,1.50391 -4.49609,2h12.90625v-2z"></path></g></g></svg>