<svg xmlns="http://www.w3.org/2000/svg" xmlns:xlink="http://www.w3.org/1999/xlink" viewBox="0,0,256,256" width="50px" height="50px" fill-rule="nonzero"><g fill="#c4fe76" fill-rule="nonzero" stroke="none" stroke-width="1" stroke-linecap="butt" stroke-linejoin="miter" stroke-miterlimit="10" stroke-dasharray="" stroke-dashoffset="0" font-family="none" font-weight="none" font-size="none" text-anchor="none" style="mix-blend-mode: normal"><g transform="scale(5.12,5.12)"><path d="M13,4c-0.55078,0 -1,0.44922 -1,1v19h-6c-0.55078,0 -1,0.44922 -1,1v20c0,0.55078 0.44922,1 1,1h16c0.55078,0 1,-0.44922 1,-1v-2h20c0.55078,0 1,-0.44922 1,-1v-37c0,-0.55078 -0.44922,-1 -1,-1zM14,6h28v35h-19v-16c0,-0.55078 -0.44922,-1 -1,-1h-8zM18,12v2h15v-2zM35,12v2h3v-2zM18,16v2h13v-2zM35,16v2h3v-2zM18,20v2h15v-2zM35,20v2h3v-2zM25,24v2h8v-2zM35,24v2h3v-2zM7,26h14v18h-14zM9,28v2h10v-2zM25,28v2h6v-2zM35,28v2h3v-2zM9,32v2h2v-2zM13,32v2h2v-2zM17,32v2h2v-2zM25,32v2h8v-2zM35,32v2h3v-2zM9,36v2h2v-2zM13,36v2h2v-2zM17,36v2h2v-2zM9,40v2h2v-2zM13,40v2h2v-2zM17,40v2h2v-2z"></path></g></g></svg>