<svg xmlns="http://www.w3.org/2000/svg" xmlns:xlink="http://www.w3.org/1999/xlink" viewBox="0,0,256,256" width="50px" height="50px" fill-rule="nonzero"><g fill="#c4fe76" fill-rule="nonzero" stroke="none" stroke-width="1" stroke-linecap="butt" stroke-linejoin="miter" stroke-miterlimit="10" stroke-dasharray="" stroke-dashoffset="0" font-family="none" font-weight="none" font-size="none" text-anchor="none" style="mix-blend-mode: normal"><g transform="scale(5.12,5.12)"><path d="M24,6v3.05859c-3.66334,0.28954 -5.8204,2.11002 -6.86914,3.94531c-1.14248,1.99934 -1.13086,3.99609 -1.13086,3.99609c0,2.5463 1.21331,4.46128 2.86914,5.80664c1.65583,1.34536 3.73047,2.23438 5.73047,3.10938c2,0.875 3.92536,1.73599 5.26953,2.82813c1.34417,1.09214 2.13086,2.30216 2.13086,4.25586c0,0 -0.01162,1.50325 -0.86914,3.00391c-0.85752,1.50066 -2.42253,2.99609 -6.13086,2.99609c-3.66667,0 -5.22473,-1.68578 -6.10547,-3.44727c-0.88074,-1.76149 -0.89453,-3.55273 -0.89453,-3.55273h-2c0,0 -0.01379,2.20875 1.10547,4.44727c1.02971,2.05942 3.18299,4.1773 6.89453,4.50391v3.04883h2v-3.05859c3.66334,-0.28954 5.8204,-2.11002 6.86914,-3.94531c1.14248,-1.99934 1.13086,-3.99609 1.13086,-3.99609c0,-2.5463 -1.21331,-4.46128 -2.86914,-5.80664c-1.65583,-1.34536 -3.73047,-2.23437 -5.73047,-3.10937c-2,-0.875 -3.92536,-1.73599 -5.26953,-2.82812c-1.34417,-1.09214 -2.13086,-2.30216 -2.13086,-4.25586c0,0 0.01162,-1.50325 0.86914,-3.00391c0.85752,-1.50066 2.42253,-2.99609 6.13086,-2.99609c3.66667,0 5.22473,1.68578 6.10547,3.44727c0.88074,1.76149 0.89453,3.55273 0.89453,3.55273h2c0,0 0.01379,-2.20875 -1.10547,-4.44727c-1.02971,-2.05941 -3.18299,-4.1773 -6.89453,-4.50391v-3.04883zM40.95508,8.99023c-0.4067,0.01433 -0.76417,0.27366 -0.904,0.65584c-0.13983,0.38218 -0.03414,0.81098 0.26728,1.08439l5.64453,5.26953h-10.15625c0.126,0.693 0.19336,1.369 0.19336,2h9.96289l-5.64453,5.26953c-0.2799,0.2388 -0.40608,0.612 -0.32852,0.97166c0.07756,0.35966 0.34634,0.64769 0.69978,0.7499c0.35344,0.10222 0.73447,0.00212 0.99203,-0.26062l8.2832,-7.73047l-8.2832,-7.73047c-0.19453,-0.1874 -0.4566,-0.28813 -0.72656,-0.2793zM2,16c-0.553,0 -1,0.447 -1,1c0,0.553 0.447,1 1,1h12.05469c-0.031,-0.324 -0.05469,-0.654 -0.05469,-1c0,-0.321 0.02545,-0.658 0.06445,-1zM8.98047,24.99023c-0.2598,0.00774 -0.50638,0.11632 -0.6875,0.30273l-7.70703,7.70703l7.70703,7.70703c0.25082,0.26124 0.62327,0.36647 0.97371,0.27511c0.35044,-0.09136 0.62411,-0.36503 0.71547,-0.71547c0.09136,-0.35044 -0.01388,-0.72289 -0.27511,-0.97371l-5.29297,-5.29297h9.7793c-0.126,-0.693 -0.19336,-1.369 -0.19336,-2h-9.58594l5.29297,-5.29297c0.29576,-0.28749 0.38469,-0.72707 0.22393,-1.10691c-0.16075,-0.37985 -0.53821,-0.62204 -0.9505,-0.60988zM35.94531,32c0.031,0.324 0.05469,0.654 0.05469,1c0,0.321 -0.02545,0.658 -0.06445,1h12.56445c0.553,0 1,-0.447 1,-1c0,-0.553 -0.447,-1 -1,-1z"></path></g></g></svg>