<svg xmlns="http://www.w3.org/2000/svg" xmlns:xlink="http://www.w3.org/1999/xlink" viewBox="0,0,256,256" width="50px" height="50px" fill-rule="nonzero"><g fill="#c4fe76" fill-rule="nonzero" stroke="none" stroke-width="1" stroke-linecap="butt" stroke-linejoin="miter" stroke-miterlimit="10" stroke-dasharray="" stroke-dashoffset="0" font-family="none" font-weight="none" font-size="none" text-anchor="none" style="mix-blend-mode: normal"><g transform="scale(5.12,5.12)"><path d="M16.8125,0c-0.47656,0.08984 -0.82031,0.51172 -0.8125,1v1h-8c-1.64453,0 -3,1.35547 -3,3v42c0,1.64453 1.35547,3 3,3h34c1.64453,0 3,-1.35547 3,-3v-42c0,-1.64453 -1.35547,-3 -3,-3h-8v-1c0,-0.55078 -0.44922,-1 -1,-1h-16c-0.03125,0 -0.0625,0 -0.09375,0c-0.03125,0 -0.0625,0 -0.09375,0zM18,2h14v6h-14zM8,4h8v2h-7v40h32v-40h-7v-2h8c0.55469,0 1,0.44531 1,1v42c0,0.55469 -0.44531,1 -1,1h-34c-0.55469,0 -1,-0.44531 -1,-1v-42c0,-0.55469 0.44531,-1 1,-1zM11,8h5v1c0,0.55078 0.44922,1 1,1h16c0.55078,0 1,-0.44922 1,-1v-1h5v36h-28zM32.71875,18.625l-0.5625,0.84375l-8.125,12.59375l-5.375,-4.8125l-0.71875,-0.65625l-1.34375,1.46875l0.75,0.6875l6.1875,5.59375l0.875,0.78125l0.625,-0.96875l8.8125,-13.625l0.53125,-0.8125z"></path></g></g></svg>